<svg id="logos"
    xmlns="http://www.w3.org/2000/svg"
    xmlns:xlink="http://www.w3.org/1999/xlink" viewBox="0 0 400 400">
    <defs>
        <style>.cls-1{fill:#d0d2d3;}.cls-2{fill:url(#New_Gradient_Swatch_1);}</style>
        <radialGradient id="New_Gradient_Swatch_1" cx="201.31" cy="200.55" r="194.17" gradientUnits="userSpaceOnUse">
            <stop offset="0" stop-color="#0082b5"/>
            <stop offset="0.54" stop-color="#005480"/>
            <stop offset="1" stop-color="#003556"/>
        </radialGradient>
    </defs>
    <title>Maple</title>
    <path class="cls-1" d="M301.34,43.36a186.34,186.34,0,0,1,74.75,218.48c3.35,2.34,6.37,4.19,8.92,5.73l2.64,1.62A199,199,0,0,0,400,200c0-73.79-40.2-138.33-99.82-173C300.7,31.82,301.07,37.26,301.34,43.36Z"/>
    <path class="cls-1" d="M358.28,298.79a186.55,186.55,0,0,1-222.4,76.53l-5.69,12.08A198.94,198.94,0,0,0,200,400c75.26,0,140.91-41.8,175-103.39A104.2,104.2,0,0,1,358.28,298.79Z"/>
    <path class="cls-1" d="M106.41,361.41A186.34,186.34,0,0,1,23,140.72c-3.54-4.07-6.92-8.08-9.92-11.86A198.92,198.92,0,0,0,0,200c0,74.23,40.68,139.1,100.89,173.6Z"/>
    <path class="cls-1" d="M43.33,98.7a186.41,186.41,0,0,1,213.5-76.49c5.31-3.84,9.77-6.92,13.57-9.38A198.94,198.94,0,0,0,200,0C126.23,0,61.71,40.18,27,99.77,31.46,99.34,36.87,99,43.33,98.7Z"/>
    <path class="cls-2" d="M392.91,282.23a.6.6,0,0,0-.09-.15,27,27,0,0,0-5.68-5.22c-1.44-1.08-3.38-2.25-5.62-3.61-8.15-4.92-20.46-12.36-35.61-30.91-.43-.53-.82-1.06-1.17-1.58a15.83,15.83,0,0,1-2.35-12.19c2.27-10.94,14.74-19.32,16.16-20.24l.18-.11.18-.1a16.37,16.37,0,0,0,4.21-3.12c-1.44-.9-6.38-3-22-3.73l-2.25-.1c-53.45-2.52-59.67-5.54-62-9-.92-1.45-3.72-5.87,7.88-22.11,2.77-3.88,37.08-53.81,40.42-59.11,7.14-11.37,7.35-16.25,6.9-17a3.43,3.43,0,0,0-1.72-.29c-2.62,0-8.81,1.16-22.49,8.11a6.06,6.06,0,0,1-8.16-2.35c-3.36-5.09-3.87-17.62-4.47-39.34-.52-18.53-1.16-41.59-5.37-48a6.94,6.94,0,0,0-.44-.58s0,0,0,0h0a2.69,2.69,0,0,0-.79-.11c-6.53,0-29.28,17.12-41.76,26.51-20.87,15.7-31,22.86-37.35,22.86a6.68,6.68,0,0,1-2.89-.61c-4-1.84-7-6.06-9.86-10.15-1.57-2.23-4.5-6.37-5.62-6.67,0,0-2.28.87-5.84,10.34-4.27,11.38-8.35,26.95-12,40.69-7.58,29-10.72,39.27-16.16,41.38a5.79,5.79,0,0,1-2.07.39,5.7,5.7,0,0,1-3.12-.94c-2.44-1.58-5.79-6.07-14.74-18.51-8.59-12-28.47-39.61-35.12-40.88a6.92,6.92,0,0,0-.48,1.78c-3,17.77-4.32,25.87-17.46,27-2.11.18-6.46.2-12.48.23-37.83.18-58.7,2.18-62,6,.06.59.5,2.53,3.39,6.9,4.38,6.63,12,15.29,19.31,23.68s14.27,16.31,18.35,22.5c2.28,3.44,3.49,6.06,3.86,8.33a7.9,7.9,0,0,1,0,5.83c-2,5.13-8.91,9.19-21.13,12.4a3,3,0,0,0,.36.72c1.1,1.66,5.55,6.2,23.19,12.46,5.77,2,10.26,3.57,13.76,4.75,9.94,3.35,12.93,4.37,15.16,7.74a19.1,19.1,0,0,1,2,4.41l.51,1.4c2.82,7.68-5.7,14.26-14.72,21.22-5.35,4.12-11.4,8.79-13.08,12.42-2.17,4.7-2,7.29-1.84,8.14l.2-.1.14,1,.08.12c.37.57,1.62,2,5.07,2.75,1.59.36,4.77.78,8.45,1.26,15.33,2,43.86,5.8,58.84,17.63a28.24,28.24,0,0,1,6.21,6.44,12.9,12.9,0,0,1,1.21,13.05L106.17,378.1c-.41,3.35-.33,8.77,1.12,11a1.2,1.2,0,0,0,1.15.67h.67a37.67,37.67,0,0,0,14-2.93L157.84,313l.6-.56a24.51,24.51,0,0,1,15.4-5.95,21,21,0,0,1,6.56,1.05c2.87.77,37.38,10.55,58.42,41.82l.11.17.09.17c0,.06.28.5.69,1.12,1.68,2.55,3.12,3.65,3.7,3.88.53-.44,2.87-3,4.54-14.75-.61-16.3.22-36.27,7.55-39.8a20.21,20.21,0,0,1,8.49-1.59,38.86,38.86,0,0,1,7,.67c4,.77,13.18,6.15,26.7,14.28,3.15,1.9,6.11,3.68,8.54,5.1A67.93,67.93,0,0,0,317,324c0-.38,0-.76,0-1.1,0-.6,0-1.22,0-1.86,0-1.71-.11-4.13-.23-6.69-.62-13.2-.71-20.17,4.26-22a11.6,11.6,0,0,1,4-.45c1.58,0,3.74.08,6.86.19,4,.15,9.23.35,14.86.35,11.29,0,24.34-.78,33.41-4.24C383.48,286.91,391.18,284,392.91,282.23Z"/>
</svg>