<svg id="图层_1" data-name="图层 1" xmlns="http://www.w3.org/2000/svg" viewBox="0 0 400 400">
    <defs>
        <style>.cls-1{fill:#539e43;}</style>
    </defs>
    <title>NodeJS</title>
    <path class="cls-1"
          d="M199.36,400.37a32.55,32.55,0,0,1-15.54-4.06l-49.19-29.22c-7.4-4.07-3.7-5.55-1.48-6.29,10-3.33,11.84-4.07,22.19-10a3.4,3.4,0,0,1,3.7.37l37.73,22.56a4.7,4.7,0,0,0,4.44,0l147.57-85.43a4.25,4.25,0,0,0,2.22-4.07V115.34a4.23,4.23,0,0,0-2.21-4L201.71,26.51a4.66,4.66,0,0,0-4.42,0L50.21,111.29a4.62,4.62,0,0,0-2.21,4V284.12a4.59,4.59,0,0,0,2.22,4l40.29,23.15c21.81,11,35.49-1.84,35.49-14.7V129.41a4.48,4.48,0,0,1,4.44-4.41H149.6a4.47,4.47,0,0,1,4.4,4.41v167.2c0,29-15.78,45.94-43.3,45.94-8.44,0-15,0-33.76-9.19L38.41,311.31A31,31,0,0,1,23,284.49V115.57A31,31,0,0,1,38.43,88.75L185.07,3.86a32.75,32.75,0,0,1,30.86,0L362.57,88.75A31,31,0,0,1,378,115.57v169a31.23,31.23,0,0,1-15.53,27L214.89,397.05a38,38,0,0,1-15.53,3.32Zm45.83-116.74c-64.12,0-77.31-29.32-77.31-54.23a4.46,4.46,0,0,1,4.4-4.4h19.05a3.77,3.77,0,0,1,4,3.66c2.93,19.42,11.36,29,50.2,29,30.78,0,44-7,44-23.45,0-9.53-3.66-16.49-51.66-21.25-39.94-4-64.86-12.83-64.86-44.7,0-29.68,24.92-47.27,66.69-47.27,46.9,0,70,16.12,72.91,51.3a5.81,5.81,0,0,1-1.1,3.29,4.48,4.48,0,0,1-2.93,1.47H289.53a4.3,4.3,0,0,1-4-3.3C281.1,153.55,269.74,147,239.7,147,206,147,202,158.68,202,167.47c0,10.63,4.76,13.93,50.2,19.79,45.06,5.86,66.32,14.29,66.32,45.8-.37,32.25-26.75,50.57-73.29,50.57Z"/>
</svg>
