<svg id="logos"
    xmlns="http://www.w3.org/2000/svg"
    xmlns:xlink="http://www.w3.org/1999/xlink" viewBox="0 0 400 400">
    <defs>
        <style>.cls-1{fill:url(#未命名的渐变_17);}.cls-2{fill:#ff7f2a;}.cls-3{fill:#d45500;}</style>
        <radialGradient id="未命名的渐变_17" cx="-169.35" cy="-59.68" r="210.32" gradientTransform="matrix(1.94, -2.1, -6.46, -7.02, 67.48, -430.84)" gradientUnits="userSpaceOnUse">
            <stop offset="0" stop-color="#008cbe"/>
            <stop offset="1" stop-color="#b2ffff"/>
        </radialGradient>
    </defs>
    <title>Octave</title>
    <path id="path5874" class="cls-1" d="M70.14,41.55c-62,67.38-47,193,33.55,280.47s196.07,103.82,258.07,36.44,47-193-33.5-280.48S132.15-25.84,70.14,41.55Zm56.23,28c48.72-52.95,138.3-41.43,200.1,25.73s72.4,164.51,23.68,217.45S211.82,354.18,150,287,77.65,122.48,126.37,69.54Z"/>
    <g id="rect5876">
        <rect class="cls-2" x="296.29" y="65.48" width="51.91" height="51.91" rx="9.18"/>
        <path class="cls-3" d="M339,121.83H305.47a13.64,13.64,0,0,1-13.62-13.63V74.66A13.64,13.64,0,0,1,305.47,61H339a13.64,13.64,0,0,1,13.63,13.62V108.2A13.64,13.64,0,0,1,339,121.83ZM305.47,69.92a4.74,4.74,0,0,0-4.74,4.74V108.2a4.75,4.75,0,0,0,4.74,4.75H339a4.75,4.75,0,0,0,4.75-4.75V74.66A4.75,4.75,0,0,0,339,69.92Z"/>
    </g>
    <g id="rect5878">
        <rect class="cls-2" x="4.44" y="133.87" width="122.27" height="122.27" rx="21.63"/>
        <path class="cls-3" d="M105.08,260.58h-79A26.1,26.1,0,0,1,0,234.5v-79a26.09,26.09,0,0,1,26.07-26.07h79a26.1,26.1,0,0,1,26.07,26.07v79A26.11,26.11,0,0,1,105.08,260.58Zm-79-122.27A17.21,17.21,0,0,0,8.88,155.5v79a17.22,17.22,0,0,0,17.19,17.2h79a17.22,17.22,0,0,0,17.19-17.2v-79a17.21,17.21,0,0,0-17.19-17.19Z"/>
    </g>
    <g id="rect5880">
        <rect class="cls-2" x="320.43" y="293.93" width="73.87" height="73.87" rx="13.07"/>
        <path class="cls-3" d="M381.23,372.24H333.5A17.53,17.53,0,0,1,316,354.73V307a17.54,17.54,0,0,1,17.51-17.51h47.73A17.53,17.53,0,0,1,398.74,307v47.73A17.52,17.52,0,0,1,381.23,372.24ZM333.5,298.37a8.64,8.64,0,0,0-8.63,8.63v47.73a8.64,8.64,0,0,0,8.63,8.63h47.73a8.64,8.64,0,0,0,8.63-8.63V307a8.64,8.64,0,0,0-8.63-8.63Z"/>
    </g>
</svg>