<svg id="logos"
    xmlns="http://www.w3.org/2000/svg"
    xmlns:xlink="http://www.w3.org/1999/xlink" viewBox="0 0 400 400">
    <defs>
        <style>.cls-1,.cls-2{fill-rule:evenodd;}.cls-1{fill:url(#未命名的渐变_22);}.cls-2{fill:url(#未命名的渐变_21);}</style>
        <linearGradient id="未命名的渐变_22" x1="420.55" y1="-20.46" x2="421.11" y2="-21.01" gradientTransform="matrix(721.09, 0, 0, -482.94, -303256.3, -9812.75)" gradientUnits="userSpaceOnUse">
            <stop offset="0" stop-color="#cbced0"/>
            <stop offset="1" stop-color="#84838b"/>
        </linearGradient>
        <linearGradient id="未命名的渐变_21" x1="419.63" y1="-20.45" x2="420.18" y2="-21" gradientTransform="matrix(398, 0, 0, -406.12, -166936.64, -8203.36)" gradientUnits="userSpaceOnUse">
            <stop offset="0" stop-color="#276dc3"/>
            <stop offset="1" stop-color="#165caa"/>
        </linearGradient>
    </defs>
    <title>R</title>
    <path class="cls-1" d="M200,334C89.54,334,0,274,0,200S89.54,66.05,200,66.05s200,60,200,134S310.46,334,200,334Zm30.61-215.53c-84,0-152,41-152,91.57s68.06,91.57,152,91.57,145.92-28,145.92-91.57S314.57,118.42,230.61,118.42Z"/>
    <path class="cls-2" d="M229.4,211.65s12.1,3.65,19.14,7.21a37.13,37.13,0,0,1,9.7,6.93,26.06,26.06,0,0,1,4.44,6.38l47.71,80.44-77.11,0-36.05-67.71s-7.39-12.68-11.93-16.36c-3.79-3.07-5.41-4.16-9.15-4.16H157.83v88.18l-68.23,0V87.36h137s62.4,1.12,62.4,60.5S229.4,211.65,229.4,211.65Zm-29.68-75.43-41.3,0,0,38.31,41.32,0s19.14-.06,19.14-19.48C218.86,135.18,199.72,136.22,199.72,136.22Z"/>
</svg>