<svg id="logos"
    xmlns="http://www.w3.org/2000/svg"
    xmlns:xlink="http://www.w3.org/1999/xlink" viewBox="0 0 400 400">
    <defs>
        <style>.cls-1{fill:url(#未命名的渐变_20);}.cls-2{fill:url(#未命名的渐变_3);}.cls-3{fill:url(#未命名的渐变_3-2);}.cls-4{fill:url(#未命名的渐变_4);}.cls-5{fill:url(#未命名的渐变_5);}.cls-6{fill:url(#未命名的渐变_6);}.cls-7{fill:url(#未命名的渐变_7);}.cls-8{fill:url(#未命名的渐变_19);}.cls-9{fill:#fff;}.cls-10{fill:url(#未命名的渐变_9);}.cls-11{fill:url(#未命名的渐变_10);}.cls-12{fill:url(#未命名的渐变_11);}.cls-13{fill:url(#未命名的渐变_12);}.cls-14{fill:#9e1209;}.cls-15{fill:url(#未命名的渐变_13);}.cls-16{fill:url(#未命名的渐变_14);}.cls-17{fill:url(#未命名的渐变_15);}.cls-18{fill:url(#未命名的渐变_16);}</style>
        <linearGradient id="未命名的渐变_20" x1="420.4" y1="399.11" x2="419.99" y2="399.84" gradientTransform="matrix(202.93, 0, 0, -202.78, -84962.55, 81367.29)" gradientUnits="userSpaceOnUse">
            <stop offset="0" stop-color="#fb7655"/>
            <stop offset="0.41" stop-color="#e42b1e"/>
            <stop offset="0.99" stop-color="#900"/>
            <stop offset="1" stop-color="#900"/>
        </linearGradient>
        <linearGradient id="未命名的渐变_3" x1="417.55" y1="399.39" x2="415.75" y2="400.04" gradientTransform="matrix(60.31, 0, 0, -111.78, -24788.27, 44953.49)" gradientUnits="userSpaceOnUse">
            <stop offset="0" stop-color="#871101"/>
            <stop offset="0.99" stop-color="#911209"/>
            <stop offset="1" stop-color="#911209"/>
        </linearGradient>
        <linearGradient id="未命名的渐变_3-2" x1="420.11" y1="391.57" x2="419.54" y2="394.89" gradientTransform="matrix(188.32, 0, 0, -21.99, -78808.94, 9049.49)" xlink:href="#未命名的渐变_3"/>
        <linearGradient id="未命名的渐变_4" x1="415.48" y1="399.97" x2="415.74" y2="398.84" gradientTransform="matrix(65.22, 0, 0, -97.1, -27020.35, 39094.91)" gradientUnits="userSpaceOnUse">
            <stop offset="0" stop-color="#fff"/>
            <stop offset="0.23" stop-color="#e57252"/>
            <stop offset="0.46" stop-color="#de3b20"/>
            <stop offset="0.99" stop-color="#a60003"/>
            <stop offset="1" stop-color="#a60003"/>
        </linearGradient>
        <linearGradient id="未命名的渐变_5" x1="418.13" y1="400.31" x2="418.19" y2="399.27" gradientTransform="matrix(105.32, 0, 0, -106.83, -43843.77, 42919.18)" gradientUnits="userSpaceOnUse">
            <stop offset="0" stop-color="#fff"/>
            <stop offset="0.23" stop-color="#e4714e"/>
            <stop offset="0.56" stop-color="#be1a0d"/>
            <stop offset="0.99" stop-color="#a80d00"/>
            <stop offset="1" stop-color="#a80d00"/>
        </linearGradient>
        <linearGradient id="未命名的渐变_6" x1="418.05" y1="400.57" x2="418.25" y2="399.36" gradientTransform="matrix(94.32, 0, 0, -66.42, -39133.86, 26657.29)" gradientUnits="userSpaceOnUse">
            <stop offset="0" stop-color="#fff"/>
            <stop offset="0.18" stop-color="#e46342"/>
            <stop offset="0.4" stop-color="#c82410"/>
            <stop offset="0.99" stop-color="#a80d00"/>
            <stop offset="1" stop-color="#a80d00"/>
        </linearGradient>
        <linearGradient id="未命名的渐变_7" x1="416.42" y1="400.09" x2="417.55" y2="401.74" gradientTransform="matrix(70.77, 0, 0, -24.3, -29228.33, 9746.25)" gradientUnits="userSpaceOnUse">
            <stop offset="0" stop-color="#fff"/>
            <stop offset="0.54" stop-color="#c81f11"/>
            <stop offset="0.99" stop-color="#bf0905"/>
            <stop offset="1" stop-color="#bf0905"/>
        </linearGradient>
        <linearGradient id="未命名的渐变_19" x1="398.26" y1="399.68" x2="398.64" y2="398.74" gradientTransform="matrix(18.18, 0, 0, -72.64, -7231.64, 29262.3)" gradientUnits="userSpaceOnUse">
            <stop offset="0" stop-color="#fff"/>
            <stop offset="0.31" stop-color="#de4024"/>
            <stop offset="0.99" stop-color="#bf190b"/>
            <stop offset="1" stop-color="#bf190b"/>
        </linearGradient>
        <linearGradient id="未命名的渐变_9" x1="418.05" y1="399.06" x2="420.01" y2="401.08" gradientTransform="matrix(158.16, 0, 0, -157.94, -66156.56, 63340.3)" gradientUnits="userSpaceOnUse">
            <stop offset="0" stop-color="#bd0012"/>
            <stop offset="0.07" stop-color="#fff"/>
            <stop offset="0.17" stop-color="#fff"/>
            <stop offset="0.27" stop-color="#c82f1c"/>
            <stop offset="0.33" stop-color="#820c01"/>
            <stop offset="0.46" stop-color="#a31601"/>
            <stop offset="0.72" stop-color="#b31301"/>
            <stop offset="0.99" stop-color="#e82609"/>
            <stop offset="1" stop-color="#e82609"/>
        </linearGradient>
        <linearGradient id="未命名的渐变_10" x1="418.85" y1="399.07" x2="418.11" y2="399.3" gradientTransform="matrix(127.07, 0, 0, -97.41, -53024.32, 39218.37)" gradientUnits="userSpaceOnUse">
            <stop offset="0" stop-color="#8c0c01"/>
            <stop offset="0.54" stop-color="#990c00"/>
            <stop offset="0.99" stop-color="#a80d0e"/>
            <stop offset="1" stop-color="#a80d0e"/>
        </linearGradient>
        <linearGradient id="未命名的渐变_11" x1="418.71" y1="399.58" x2="417.82" y2="400.28" gradientTransform="matrix(94.01, 0, 0, -105.6, -39002.62, 42430.22)" gradientUnits="userSpaceOnUse">
            <stop offset="0" stop-color="#7e110b"/>
            <stop offset="0.99" stop-color="#9e0c00"/>
            <stop offset="1" stop-color="#9e0c00"/>
        </linearGradient>
        <linearGradient id="未命名的渐变_12" x1="418.43" y1="399.83" x2="417.91" y2="400.38" gradientTransform="matrix(79.7, 0, 0, -81.79, -32958.42, 32800.38)" gradientUnits="userSpaceOnUse">
            <stop offset="0" stop-color="#79130d"/>
            <stop offset="0.99" stop-color="#9e120b"/>
            <stop offset="1" stop-color="#9e120b"/>
        </linearGradient>
        <radialGradient id="未命名的渐变_13" cx="417.93" cy="399.41" r="1.09" gradientTransform="matrix(93.11, 0, 0, -48.66, -38624.45, 19594.33)" gradientUnits="userSpaceOnUse">
            <stop offset="0" stop-color="#a80d00"/>
            <stop offset="0.99" stop-color="#7e0e08"/>
            <stop offset="1" stop-color="#7e0e08"/>
        </radialGradient>
        <radialGradient id="未命名的渐变_14" cx="417.37" cy="399.19" r="1.39" gradientTransform="matrix(97.43, 0, 0, -75.85, -40516.75, 30572.57)" gradientUnits="userSpaceOnUse">
            <stop offset="0" stop-color="#a30c00"/>
            <stop offset="0.99" stop-color="#800e08"/>
            <stop offset="1" stop-color="#800e08"/>
        </radialGradient>
        <linearGradient id="未命名的渐变_15" x1="411.56" y1="398.21" x2="410.72" y2="399.62" gradientTransform="matrix(40.14, 0, 0, -81.14, -16464.94, 32710.67)" gradientUnits="userSpaceOnUse">
            <stop offset="0" stop-color="#8b2114"/>
            <stop offset="0.43" stop-color="#9e100a"/>
            <stop offset="0.99" stop-color="#b3100c"/>
            <stop offset="1" stop-color="#b3100c"/>
        </linearGradient>
        <linearGradient id="未命名的渐变_16" x1="417.37" y1="400.44" x2="418.34" y2="399.42" gradientTransform="matrix(78.1, 0, 0, -32.62, -32283.98, 13084.18)" gradientUnits="userSpaceOnUse">
            <stop offset="0" stop-color="#b31000"/>
            <stop offset="0.44" stop-color="#910f08"/>
            <stop offset="0.99" stop-color="#791c12"/>
            <stop offset="1" stop-color="#791c12"/>
        </linearGradient>
    </defs>
    <title>Ruby</title>
    <path class="cls-1" d="M309.9,263.84,81.52,399.44l295.71-20.06L400,81.21Z"/>
    <path class="cls-2" d="M377.71,379.18,352.29,203.76l-69.23,91.41Z"/>
    <path class="cls-3" d="M378.05,379.18l-186.2-14.62L82.51,399.06Z"/>
    <path class="cls-4" d="M82.77,399.1l46.52-152.38L26.93,268.6Z"/>
    <path class="cls-5" d="M283.05,295.67,240.25,128,117.76,242.84Z"/>
    <path class="cls-6" d="M390.29,130.39,274.51,35.82,242.27,140.06Z"/>
    <path class="cls-7" d="M336.14,2.11,268.05,39.74l-43-38.13Z"/>
    <path class="cls-8" d="M0,319.72l28.53-52L4,204Z"/>
    <path class="cls-9" d="M4,204l23.13,65.61L129,247,243.19,139.94,275.7,36.69,224.52.56l-87,32.56C110.09,58.62,56.89,109.07,55,110Z"/>
    <path class="cls-10" d="M85.44,85.45c59.41-58.91,136-93.72,165.41-64.06S249.07,123.12,189.65,182,54.59,277.63,25.22,248,26,144.34,85.44,85.45Z"/>
    <path class="cls-11" d="M82.77,399l46.16-152.87L282.2,295.41c-55.42,52-117.06,95.9-199.43,103.63Z"/>
    <path class="cls-12" d="M243.4,139.64l39.34,155.85c46.3-48.67,87.84-101,108.19-165.73L243.4,139.64Z"/>
    <path class="cls-13" d="M390.53,130.55C406.28,83,409.91,14.85,335.66,2.19L274.73,35.85l115.8,94.7Z"/>
    <path class="cls-14" d="M0,319c2.18,78.44,58.77,79.61,82.87,80.3l-55.68-130L0,319Z"/>
    <path class="cls-15" d="M243.62,139.88c35.57,21.86,107.26,65.77,108.71,66.58,2.26,1.27,30.91-48.31,37.41-76.33l-146.12,9.75Z"/>
    <path class="cls-16" d="M128.86,246.17l61.7,119c36.48-19.78,65.05-43.89,91.21-69.71L128.86,246.17Z"/>
    <path class="cls-17" d="M27,269.45,18.21,373.54C34.7,396.07,57.4,398,81.2,396.28,64,353.41,29.58,267.71,27,269.45Z"/>
    <path class="cls-18" d="M274.37,36.11l122.56,17.2C390.39,25.59,370.3,7.7,336.06,2.11l-61.69,34Z"/>
</svg>