<svg id="图层_1" data-name="图层 1" xmlns="http://www.w3.org/2000/svg" viewBox="0 0 400 400">
    <defs>
        <style>
            .cls-1{fill:#3131ff;opacity:0.99;isolation:isolate;}.cls-2,.cls-3,.cls-4,.cls-5{fill:none;stroke:#3131ff;stroke-miterlimit:3.1;}.cls-2{stroke-width:20.58px;}.cls-3{stroke-width:15.43px;}.cls-4{stroke-width:10.29px;}.cls-5{stroke-width:5.14px;}
        </style>
    </defs>
    <title>SageMath</title>
    <path id="path3438" class="cls-1" d="M244.23,240.47a22.72,22.72,0,0,1-45.43,0h0a22.72,22.72,0,0,1,45.43,0Z"/>
    <path id="path3440" class="cls-1" d="M59.9,262.08a15,15,0,0,1-30,0h0a15,15,0,1,1,30,0Z"/>
    <path id="path3434" class="cls-1" d="M99.39,83.78a18.23,18.23,0,0,1-36.45,0h0a18.23,18.23,0,1,1,36.45,0Z"/>
    <path id="path3436" class="cls-1" d="M287.29,61.41a18.23,18.23,0,1,1-36.45,0h0a18.23,18.23,0,0,1,36.45,0Z"/>
    <path id="path3442" class="cls-1" d="M188.41,385a15,15,0,0,1-30,0h0a15,15,0,0,1,30,0Z"/>
    <path id="path3444" class="cls-1" d="M335,342.43a15,15,0,0,1-30,0h0a15,15,0,0,1,30,0Z"/>
    <path id="path3446" class="cls-1" d="M398.56,204.08a15,15,0,0,1-30,0h0a15,15,0,1,1,30,0Z"/>
    <path id="path3448" class="cls-1" d="M374.53,126.05a11.75,11.75,0,1,1-23.5,0h0a11.75,11.75,0,0,1,23.5,0Z"/>
    <path id="path3450" class="cls-1" d="M286.23,21.32a11.75,11.75,0,1,1-23.49,0h0a11.75,11.75,0,1,1,23.49,0Z"/>
    <path id="path3454" class="cls-1" d="M24.94,253.45a11.75,11.75,0,0,1-23.5,0h0a11.75,11.75,0,0,1,23.5,0Z"/>
    <path id="path3456" class="cls-1" d="M119.69,349.54a11.75,11.75,0,1,1-23.49,0h0a11.75,11.75,0,1,1,23.49,0Z"/>
    <path id="path3458" class="cls-1" d="M36.93,118.94a15,15,0,1,1-30,0H7a15,15,0,0,1,30,0Z"/>
    <path id="path3460" class="cls-1" d="M150.35,15a15,15,0,1,1-30,0h0a15,15,0,1,1,30,0Z"/>
    <path id="path3462" class="cls-1" d="M113.05,167.08a11.75,11.75,0,0,1-23.49,0h0a11.75,11.75,0,1,1,23.49,0Z"/>
    <path id="path3464" class="cls-1" d="M241.73,320.85a11.75,11.75,0,0,1-23.5,0h0a11.75,11.75,0,0,1,23.5,0Z"/>
    <path id="path3519" class="cls-1" d="M184.72,101a11.75,11.75,0,1,1-23.49,0h0a11.75,11.75,0,0,1,23.49,0Z"/>
    <path id="path3521" class="cls-1" d="M331.21,243.56a11,11,0,1,1-22,0h0a11,11,0,1,1,22,0Z"/>
    <path id="path3468" class="cls-2" d="M268.32,57.62,220.4,244.56"/>
    <path id="path3470" class="cls-2" d="M266,62.56,79.34,84.31"/>
    <path id="path3472" class="cls-2" d="M220.22,242.4,79.52,83.23"/>
    <path id="path3474" class="cls-3" d="M220.22,243.48l-46.48,143.9"/>
    <path id="path3476" class="cls-4" d="M79,82.61,133,20"/>
    <path id="path3478" class="cls-4" d="M21.2,119l56-36.86"/>
    <path id="path3480" class="cls-4" d="M44.53,260.91,79,80.91"/>
    <path id="path3482" class="cls-3" d="M171.05,384.14,43.63,264.3"/>
    <path id="path3484" class="cls-3" d="M320,339.88,170.51,383.53"/>
    <path id="path3486" class="cls-3" d="M382.1,203.69,320,340.34"/>
    <path id="path3488" class="cls-3" d="M218.25,242.4l161.69-37.64"/>
    <path id="path3491" class="cls-3" d="M268.68,61.32l110.9,141.9"/>
    <path id="path3493" class="cls-3" d="M41.42,260.91,213.71,242.4"/>
    <path id="path3495" class="cls-4" d="M169,382.91l-62.81-33.78"/>
    <path id="path3497" class="cls-4" d="M9.48,252.27,103,348.2"/>
    <path id="path3499" class="cls-4" d="M19.35,120.24l-7,132"/>
    <path id="path3501" class="cls-4" d="M133,14.59,272,19.37"/>
    <path id="path3503" class="cls-4" d="M363.92,126.88l-88.12-108"/>
    <path id="path3505" class="cls-4" d="M385.27,203.22,362.12,125.8"/>
    <path id="path3507" class="cls-4" d="M267,59.32,275.26,20"/>
    <path id="path3509" class="cls-4" d="M46.27,262.45,9.84,255.5"/>
    <path id="path3511" class="cls-5" d="M106.21,350.36,226.45,320.9"/>
    <path id="path3513" class="cls-5" d="M229.5,320.75,316,339.41"/>
    <path id="path3515" class="cls-5" d="M17.53,120.23,175,102.61"/>
    <path id="path3517" class="cls-5" d="M175,99.13l93.69-34.84"/>
    <path id="path3523" class="cls-5" d="M318.86,243.18l42.2-118.49"/>
    <path id="path3525" class="cls-5" d="M318.28,340.26l1.46-99.73"/>
    <path id="path3527" class="cls-5" d="M42.43,259.47,102.71,167"/>
    <path id="path3529" class="cls-5" d="M134.17,15.85,101,167"/>
</svg>
