<svg id="logos"
    xmlns="http://www.w3.org/2000/svg" viewBox="0 0 400 400">
    <defs>
        <style>.cls-1{fill:#d10;}.cls-2{fill:#fff;}</style>
    </defs>
    <title>Wolfram</title>
    <g id="Page-1">
        <g id="wolframLanguage">
            <circle id="backgroundCircle" cx="200" cy="200" r="200"/>
            <g id="background">
                <path id="Shape" class="cls-1" d="M380,200a180,180,0,0,1-84.44,152.53l-61.82-77,51.11,5.65s24.64,2.63,30.1,0c5.05-2,32.73-41,32.73-41s-79.2-50.1-106.47-77.78c3-46.46-3.63-108.48-3.63-107.87-20,20-22.43,23-42.43,41.41-8.69-28.08-12.73-37.78-21.41-66.06-25.86,21.82-45.86,58-60.2,100.61-3.24,3.43-6.07,7.07-9.1,10.9-2,2.63-3.83,5.26-5.65,7.88-3.84,5.46-7.48,11.32-11.11,17.17-2.43,4.25-5.05,8.69-7.28,13.14-16.56,31.31-30.3,67.07-42,99.19,0-.2-.2-.2-.2-.41A179.93,179.93,0,1,1,380,200Z"/>
            </g>
            <path id="wolf" class="cls-2" d="M205.05,136s-3-18-5.05-24.44c13.74-13.34,16-15.36,29.09-28.09,1,25.66.61,38.79-1,70.11C220.4,145.66,205.05,136,205.05,136ZM145.25,224s-14.34-8.69-25-10.1c3-7.27,11.32-16.36,13.34-19-4,1.41-33.74,14.75-36.77,26.06a176.12,176.12,0,0,1,24.64,8.08,77.85,77.85,0,0,0-19,43.44s47.07-7.28,82.43-2.63a3.91,3.91,0,0,0,2,.61l18.38.6,58.59,97.37.4.81H264c-110.5,39.8-190.1-33.53-207.27-59.19,0-.2.2-.4.2-.61,15.35-64.84,34.14-142.22,64.65-165.25,16-27.67,20.4-68.48,49.09-90.1,7.27,21.42,18.38,66.06,26.06,87.48,33.74,33.73,84.85,75.75,119.19,93.13,3.64,2,8.08,16.36,8.08,16.36L310.3,268.48,163,253.74c-3.23-.2-6.67-.41-9.9-.41a194.57,194.57,0,0,0-30.5,3c7.27-18,22.62-32.32,22.62-32.32Zm47.68-19c8.08-1,16.77,2,26.67,7.68,9.29-2.63,10.3-3,19.39-5.66-11.72-8.69-24.65-18-42-15.35A110.88,110.88,0,0,0,192.93,205.05Z"/>
        </g>
    </g>
</svg>